# xmcd CD database file
#
# Track frame offsets:
#	150
#	20622
#	46203
#	62984
#	82957
#	116226
#	146149
#	159449
#	187459
#	204536
#	221125
#	243449
#	256029
#	280769
#	305836
#	324912
#
# Disc length: 4520 seconds
#
# Revision: 2
# Processed by: cddbd v1.5.2PL0 Copyright (c) Steve Scherf et al.
# Submitted via: CDex 1.70beta2
#
DISCID=f411a610
DTITLE=Salsa - Salsa Les Titres Essentiels
DYEAR=2002
DGENRE=Salsa
TTITLE0=Tito Puente - Oye Como Va
TTITLE1=E Palmieri - Bilongo
TTITLE2=Celia Cruz - El Negro Bembon
TTITLE3=Pc Rodriguez - I'd Like It Like That
TTITLE4=R Blades - Pedro Navaja
TTITLE5=E Palmieri - Café
TTITLE6=Ismael Rivera - Berimbau
TTITLE7=Fania All Stars - Juan Pachanga
TTITLE8=Cheo Feliciano - El Raton
TTITLE9=Ismael Rivera - Arrecotin Arrecotan
TTITLE10=Celia Cruz - Ay Mi Cuba
TTITLE11=La Lupe - Fever
TTITLE12=Fania All Stars - Bamboleo
TTITLE13=Willie Colon - La Murga
TTITLE14=Jonny Pacheco - Mi Carreta
TTITLE15=Tito Puente - Ran Kan Kan
EXTD=YEAR: 2002
EXTT0=
EXTT1=
EXTT2=
EXTT3=
EXTT4=
EXTT5=
EXTT6=
EXTT7=
EXTT8=
EXTT9=
EXTT10=
EXTT11=
EXTT12=
EXTT13=
EXTT14=
EXTT15=
PLAYORDER=
